<svg viewBox="0 0 72 72" xmlns="http://www.w3.org/2000/svg"><g style="fill:none;stroke:#000;stroke-linecap:round;stroke-linejoin:round;stroke-miterlimit:10;stroke-width:2"><path d="m11.9307 45.9297c-3.9043 3.9043-3.9063 10.2363 0 14.1416 3.9043 3.9053 10.2382 3.9053 14.1425.001l33.9991-34.001c3.9043-3.9063 3.9043-10.2373 0-14.1416-3.9063-3.9063-10.2373-3.9063-14.1426-.001z"/><path d="m45.9297 11.9287c-3.9043 3.9053-3.9043 10.2373 0 14.1426"/><path d="m37.4297 20.4287c-3.9043 3.9053-3.9043 10.2373 0 14.1426"/><path d="m28.9297 28.9287c-3.9033 3.9063-3.9033 10.2383 0 14.1426"/><path d="m20.4307 37.4297c-3.9043 3.9053-3.9043 10.2373 0 14.1426"/></g></svg>