<svg viewBox="0 0 72 72" xmlns="http://www.w3.org/2000/svg"><g style="fill:none;stroke:#000;stroke-linecap:round;stroke-linejoin:round;stroke-miterlimit:10;stroke-width:2"><path d="m59.1074 36.1123-8.0185 4.7686c.417 2.3398 2.4521 4.1191 4.9111 4.1191 2.7617 0 5-2.2393 5-5 0-1.5801-.748-2.9717-1.8926-3.8877z"/><path d="m42 17c1.1045 0 2 .8955 2 2l-3 15c0 1.1045-.8955 2-2 2h-6c-1.1045 0-2-.8955-2-2l-3-15c0-1.1045.8955-2 2-2z"/><path d="m53.4961 23.5762-9.2051-3.9063c-.1308-.0556-.2656-.0947-.4004-.122l-2.8906 14.4521c0 .8818-.5742 1.6221-1.3672 1.8877.2012.2539.459.4668.7774.6025l3.6816 1.5625c1.0176.4317 2.1914-.0429 2.623-1.0595l7.8418-10.794c.4317-1.0166-.0429-2.1914-1.0605-2.623z"/><path d="m60.4121 32.4785-5.7558-5.5566c-.125-.1211-.2637-.2158-.4092-.2969l-7.5323 10.3682c-.1826.4316-.5039.7578-.8867.9668-.1308.6464.0567 1.3437.5664 1.8349l1.4395 1.3897c.7949.7675 2.0605.7451 2.8281-.0498l9.7988-5.8282c.7676-.7949.7452-2.0605-.0488-2.8281z"/><path d="m12.8926 36.1123 8.0185 4.7686c-.417 2.3398-2.4521 4.1191-4.9111 4.1191-2.7617 0-5-2.2393-5-5 0-1.5801.748-2.9717 1.8926-3.8877z"/><path d="m18.5039 23.5762 9.2051-3.9063c.1308-.0556.2656-.0947.4004-.122l2.8906 14.4521c0 .8818.5742 1.6221 1.3672 1.8877-.2012.2539-.459.4668-.7774.6025l-3.6816 1.5625c-1.0176.4317-2.1914-.0429-2.623-1.0595l-7.8418-10.794c-.4317-1.0166.0429-2.1914 1.0605-2.623z"/><path d="m11.5879 32.4785 5.7559-5.5566c.125-.1211.2636-.2158.4091-.2969l7.5323 10.3682c.1826.4316.5039.7578.8867.9668.1308.6464-.0567 1.3437-.5664 1.8349l-1.4395 1.3897c-.7949.7675-2.0605.7451-2.8281-.0498l-9.7988-5.8282c-.7676-.7949-.7452-2.0605.0488-2.8281z"/></g></svg>